<svg xmlns="http://www.w3.org/2000/svg" width="244.2" height="143.2" viewBox="0 0 244.2 143.2">
  <g>
    <g>
      <path d="M71,31.7l-1.1-.2-7.6,2.3,4.3,18.5c.5.6,1.7,1.8,1.7,3.1a3.3,3.3,0,0,1-3.2,3,4,4,0,0,1-3.8-3.5L56.8,35.6,46.3,38.8l-7.2,2.7a38.9,38.9,0,0,0-2.5,6.4c-.2,1.6-.2,3.6-1.9,4.4a3.5,3.5,0,0,1-1.4.3,2.6,2.6,0,0,1-2.8-2.5c0-1.6,1.1-5.2,2.2-8.3A2.9,2.9,0,0,1,30.9,39c0-2.6,2.1-3.5,4.6-4.1L49.4,4.3c.6-1.5,1.4-2.9,3.5-2.9s2.5,2,2.8,3.6a53,53,0,0,0,1.6,8.3c.8,3,2.5,10,3.8,15.4L69.7,26a5.4,5.4,0,0,1,1.9-.4,2.7,2.7,0,0,1,2.8,2.8A3.2,3.2,0,0,1,71,31.7ZM53.3,21.5c-.8-2.3-1.3-4.6-2-6.8C50,17.1,48,21.1,46.6,24s-3.4,7.3-4.4,9.7c4.5-.9,9-1.9,13.4-3.2C55.2,28.9,54.4,25.5,53.3,21.5Z"/>
      <path d="M102.3,27.8c-1,0-1.7-.6-2.7-.6a3.1,3.1,0,0,0-1.3.5c-4,2.3-9,7.9-13.7,15.2-2.3,3.5-1.4,8.7-2.6,10.2a3,3,0,0,1-2.4,1.1,3.4,3.4,0,0,1-3.7-3.4,25,25,0,0,1,.2-2.5,67.1,67.1,0,0,0,1.3-12.2,33.4,33.4,0,0,0-1.6-10.7,1.9,1.9,0,0,1-.2-.8c0-1.4,1.7-2.5,3.4-2.5,3.8,0,4,4.8,4,8.2s.1,3.7.1,5.3c2.4-3.1,8.7-10.3,12.5-12.5a9.1,9.1,0,0,1,4.6-1.3c2.2,0,5,.7,5,3.5A2.8,2.8,0,0,1,102.3,27.8Z"/>
      <path d="M120.9,5.9c-1.8,2.3-3,2.7-4.2,5.5a3,3,0,0,1-3.7,1.9c-1.7-.5-2-2.4-1.4-4S115,3.7,116.3,2s3.1-2.2,4.1-1.9a3,3,0,0,1,1.8,3.6A8.5,8.5,0,0,1,120.9,5.9Z"/>
      <path d="M163.8,50.7c-.7.2-1.5.7-2.8,1.1a15.9,15.9,0,0,1-6,1.1c-9.3,0-19-6.5-25.4-11.8-.2,2.1-.5,4.4-.5,6.7a18.3,18.3,0,0,0,.5,4.7,16,16,0,0,1,.5,2.9c0,1.6-.9,2.9-3.7,2.9s-3-4.7-3-11c0-14.7,4.5-39.2,7.3-40.3a4,4,0,0,1,1.5-.3,3.5,3.5,0,0,1,3.3,3.6c0,.4,0,.7-.9,2.8-1.8,4.3-3,11.5-3.7,16.3,4.9-1.5,21.6-6.6,25-6.6,1.4,0,2.5.6,2.5,2.3a3.3,3.3,0,0,1-1.3,2.6c-.9.6-7.1,1.8-8.2,2a116.6,116.6,0,0,0-17.3,5.7,56.4,56.4,0,0,0,15.3,10,21.1,21.1,0,0,0,8.6,2.1c4,0,5.8-1.8,6-2.1a3,3,0,0,1,2.5-1.5,3.5,3.5,0,0,1,3.4,3.1C167.4,48.3,166.4,49.7,163.8,50.7Z"/>
      <path d="M179.7,52.2a6.6,6.6,0,0,1-2.6.5c-9,0-9.2-20.1-9.2-26.8v-.8c0-2.3,1.3-3.3,2.6-3.3a3.6,3.6,0,0,1,3.5,3.7c0,.9-.1,1.9-.1,3.1,0,7,.7,17.7,3,17.7a1.4,1.4,0,0,0,.9-.5c2.9-3.1,3.6-16.3,3.7-18.1s1.4-3.5,2.8-3.5a3.7,3.7,0,0,1,3.6,3.8C187.9,31,184.3,50.5,179.7,52.2Z"/>
    </g>
    <g>
      <path d="M24.2,113.4c-.3,2-2.2,3-4,3.1s-4.5-.4-4.7-2.9,2.2-4,3.6-4.3c5.3-1.3,17.6-10.2,17.3-14C35.4,84.7,1.1,91.9,0,80.4S18.7,60.3,25.1,59.7s6.1.7,8.6,4.1l.3.7a3.2,3.2,0,0,1-2.9,3,3.6,3.6,0,0,1-2.4-.8c-.5-.3-1.1-1.1-2.1-1-6.7.6-20.7,8.1-20.2,13S41.1,80,42.3,93.9C43.3,104.6,24.4,112,24.2,113.4Z"/>
      <path d="M57.4,102.2a6.6,6.6,0,0,1-2.6.5c-9,0-9.2-20.1-9.2-26.8v-.8c0-2.3,1.2-3.3,2.6-3.3a3.6,3.6,0,0,1,3.5,3.7c0,.9-.1,1.9-.1,3.1,0,7,.7,17.7,3,17.7a1.4,1.4,0,0,0,.9-.5c2.9-3.1,3.6-16.4,3.7-18.1s1.4-3.5,2.8-3.5A3.7,3.7,0,0,1,65.6,78C65.6,81,62,100.5,57.4,102.2Z"/>
      <path d="M114.2,110a3.7,3.7,0,0,1-3.6-2,82.4,82.4,0,0,0-12.3.7,18.6,18.6,0,0,1,.7,5.4c0,12.7-10.3,29.1-22.8,29.1-6.9,0-14.6-5.4-14.6-13.5,0-3.7,1.5-7.6,4.9-11.4,8-8.9,14.4-11.3,23.6-13.5a11.1,11.1,0,0,0-8.8-3.7,19.6,19.6,0,0,0-6.4,1.2,11.2,11.2,0,0,1-3.8,1.2c-1.4,0-3.2-1.2-3.2-2.7s1.3-2.7,2.8-3.3a11,11,0,0,1-.5-2.9c0-5.1,4.2-8.7,7.3-12.6A3.9,3.9,0,0,1,76,79.2a2.5,2.5,0,0,1,2.6-2.3c1.1,0,1.8,1,3,1a70,70,0,0,0,7.9-1c1.7-.2,6.6-.9,9.5-.9s4.2.6,4.2,2.7S101.9,81,99.5,81H98.3a48.2,48.2,0,0,0-7.5,1,8,8,0,0,1,2.7,5.7c0,3.2-2.4,6.3-5.7,9.1,3.7,1.5,5.9,3.7,8.1,6.9,1.9-.2,6.2-.6,10.4-.6,2.5,0,12.5.1,12.5,4.2C118.8,108.8,116.5,110,114.2,110Zm-21.7-.2c-3.1.5-14.4,3.3-21.5,11.9-2.4,3.1-3.6,5.7-3.6,7.9,0,4.3,4.6,7.9,8.8,7.9,8.4,0,17-12.7,17-23.1A13.9,13.9,0,0,0,92.5,109.8ZM83.9,83.3a61,61,0,0,0-5.2,5.5c-1.2,1.7-2.4,3.6-2.4,5.7,0,.4.1.9.1,1.4,3.6-.8,11.3-4.1,11.3-8.2A5.2,5.2,0,0,0,83.9,83.3Z"/>
      <path d="M131.3,108.8c-1.9,0-3.5-1.1-3.5-2.7a2.8,2.8,0,0,1,.7-1.7c.9-1.3,10.1-4.1,10-5.8s-16.2-2.9-16.2-13.1c0-7.6,7.1-13.8,12.8-18.2a5.2,5.2,0,0,1,3.5-1.2c2.9,0,6,1.8,6,3.7a2.3,2.3,0,0,1-2.6,2.3,5.1,5.1,0,0,1-2.5-.6c-2.1.1-4.3,2.8-7.4,5.6a12.1,12.1,0,0,0-4,8.3c0,7.1,16.8,5,16.8,13.6C144.9,102.6,134.1,108.8,131.3,108.8Z"/>
      <path d="M166.9,102.4a2.1,2.1,0,0,1-1.5.7,3,3,0,0,1-2.6-1.8c-1.8,1-5.2,2.8-8.4,2.8a6.1,6.1,0,0,1-6.1-6.4c0-5.4,5.2-11.7,10.1-11.7,2.1,0,4.1,1.2,5.7,4.2a15.1,15.1,0,0,0,.3-3.2c0-2.9-1.2-9.8-5.5-9.8-2,0-3.9,1.2-4,1.7a1.5,1.5,0,0,1-1.6,1.2,2.9,2.9,0,0,1-3-2.7c0-3.2,4.9-5.5,9.2-5.5,7.4,0,10.6,8.2,10.6,15A43.3,43.3,0,0,1,166.9,102.4Zm-8.6-10.8c-2.4.2-4.8,3.6-4.8,6s.5,1.4,1.3,1.4,5.2-2.2,6.4-3.1C160.7,94.5,159.4,91.6,158.3,91.6Z"/>
      <path d="M220,75c-2.8,3.4-13.8,27.6-15.8,28.4l-.7.2c-1.1,0-2.8-.3-3.2-1.1-2-3.2-5.4-16.7-6.8-22a49.8,49.8,0,0,0-5.7,11.1c-1.1,3.1-2.7,13.1-6.7,13.3-1.6.2-2.7-1.5-3.3-5s-.6-6.7-1.1-11.8c-.2-1.4-1.2-7.8-1.4-10.6s.8-3.5,2.5-3.6a3.5,3.5,0,0,1,3.5,3.3A57.3,57.3,0,0,1,182,83l.4,6.5a62.7,62.7,0,0,1,4.1-8.8c1.1-1.7,3.9-5.8,4.7-7.5a3,3,0,0,1,2.8-1.6,4,4,0,0,1,2.5.5c1,.8,2.9,9.6,3.4,11.2a100.4,100.4,0,0,0,3.2,10.5c3.2-5.4,11.8-21.2,11.8-21.7.5-2.1,1.2-4.6,3.1-4.7a3.5,3.5,0,0,1,3.7,3.1A7.2,7.2,0,0,1,220,75Z"/>
      <path d="M240.9,103.4a1.7,1.7,0,0,1-1.4.7,3.1,3.1,0,0,1-2.7-1.8c-1.7,1-5.2,2.8-8.3,2.8a6.1,6.1,0,0,1-6.2-6.4c0-5.4,5.2-11.7,10.1-11.7,2.1,0,4.2,1.2,5.8,4.2a26.9,26.9,0,0,0,.3-3.2c0-2.9-1.3-9.8-5.6-9.8-1.9,0-3.9,1.2-3.9,1.7s-.8,1.2-1.7,1.2a2.9,2.9,0,0,1-2.9-2.7c0-3.2,4.9-5.5,9.1-5.5,7.5,0,10.7,8.2,10.7,15A40.5,40.5,0,0,1,240.9,103.4Zm-8.6-10.8c-2.3.2-4.8,3.6-4.8,6s.5,1.4,1.3,1.4,5.2-2.2,6.4-3.1C234.7,95.5,233.4,92.6,232.3,92.6Z"/>
    </g>
    <path d="M117.4,27c-1,18.7-2.8,38.3-2.6,57.3.1,2.8.2,6.8.3,9,0,3.7-.8,8-2.6,8.1s-1.3-.4-2.2-1.5-.7-3.7-.7-8.1c-.2-14.5,1.4-43.9,1.6-49.4s.4-12.3.5-16.4.5-7.6.9-8.2,1.2-1.7,2.1-1.7,2.8,2.7,2.8,6C117.5,23.3,117.5,24.9,117.4,27Z"/>
  </g>
</svg>
